<svg xmlns="http://www.w3.org/2000/svg" viewBox="0 0 1200 500" width="1200" height="500">
  <defs>
    <style>
      .bg { fill: transparent; stroke: none; }
      .text-black { fill: #0f1115; font-family: -apple-system, BlinkMacSystemFont, "Segoe UI", Roboto, Helvetica, Arial, sans-serif; font-weight: 800; font-size: 130px; letter-spacing: -4px; }
      .text-blue { fill: #2563EB; font-family: -apple-system, BlinkMacSystemFont, "Segoe UI", Roboto, Helvetica, Arial, sans-serif; font-weight: 700; font-size: 110px; letter-spacing: -3px; }
      .code { fill: #d1d5db; font-family: ui-monospace, SFMono-Regular, Menlo, Monaco, Consolas, "Liberation Mono", "Courier New", monospace; font-size: 24px; font-weight: 500; text-anchor: start; }
      .dash { fill: #2563EB; font-family: ui-monospace, SFMono-Regular, Menlo, Monaco, Consolas, monospace; font-size: 32px; font-weight: 600; letter-spacing: 2px;}
      .btn-bg { fill: #EFF6FF; stroke: #93C5FD; stroke-width: 2; rx: 6; ry: 6; }
      .btn-text { fill: #1D4ED8; font-family: ui-monospace, SFMono-Regular, Menlo, Monaco, Consolas, monospace; font-size: 22px; font-weight: 700; }
    </style>
    
    <!-- Pattern to fake the LiveKit blocky logo style on Insight -->
    <clipPath id="text-cutout">
      <rect x="0" y="0" width="1200" height="500" />
    </clipPath>
  </defs>

  <!-- Background with subtle border -->
  <rect class="bg" width="1196" height="496" x="2" y="2" rx="12" ry="12" />

  <!-- Background Source Icons (faded, floating arrangement) -->
  <g fill="#e5e7eb" opacity="0.45" transform="translate(160, 20) scale(0.9)">
    <!-- OpenAI -->
    <g transform="translate(544.0, 56.0) scale(4.1)">
        <path d="M22.2819 9.8211a5.9847 5.9847 0 0 0-.5157-4.9108 6.0462 6.0462 0 0 0-6.5098-2.9A6.0651 6.0651 0 0 0 4.9807 4.1818a5.9847 5.9847 0 0 0-3.9977 2.9 6.0462 6.0462 0 0 0 .7427 7.0966 5.98 5.98 0 0 0 .511 4.9107 6.051 6.051 0 0 0 6.5146 2.9001A6.0651 6.0651 0 0 0 19.0192 19.82a5.9847 5.9847 0 0 0 3.9977-2.9 6.0462 6.0462 0 0 0-.735-7.0988zm-9.022 12.6081a4.4755 4.4755 0 0 1-2.8764-1.0408l.1419-.0804 4.7783-2.7582a.7948.7948 0 0 0 .3927-.6813v-6.7369l2.02 1.1686a.071.071 0 0 1 .038.052v5.5826a4.504 4.504 0 0 1-4.4945 4.4944zm-9.6607-4.1254a4.4708 4.4708 0 0 1-.5346-3.0137l.142.0852 4.783 2.7582a.7712.7712 0 0 0 .7806 0l5.8428-3.3685v2.3324a.0804.0804 0 0 1-.0332.0615L9.74 19.9502a4.4992 4.4992 0 0 1-6.1408-1.6464zM2.3408 7.8956a4.485 4.485 0 0 1 2.3655-1.9728V11.6a.7664.7664 0 0 0 .3879.6765l5.8144 3.3543-2.0201 1.1685a.0757.0757 0 0 1-.071 0l-4.8303-2.7865A4.504 4.504 0 0 1 2.3408 7.8956zm16.0993 3.8558L12.5973 8.3829l2.0201-1.1685a.0757.0757 0 0 1 .071 0l4.8303 2.7913a4.4944 4.4944 0 0 1-.6765 8.1042v-5.6772a.79.79 0 0 0-.3927-.6813zm2.0107-3.0231l-.142-.0852-4.7735-2.7818a.7759.7759 0 0 0-.7854 0L8.8092 9.2297V6.8974a.0662.0662 0 0 1 .0284-.0615l4.8303-2.7866a4.4992 4.4992 0 0 1 6.6802 4.66zM8.3065 12.863l-2.02-1.1638a.0804.0804 0 0 1-.038-.0567V6.0742a4.4992 4.4992 0 0 1 7.3757-3.4537l-.142.0805L8.704 5.459a.7948.7948 0 0 0-.3927.6813zm1.0976-2.3654l2.602-1.4998 2.6069 1.4998v2.9994l-2.5974 1.4997-2.6067-1.4997Z" />
    </g>
    <!-- Google -->
    <g transform="translate(736.0, 64.0) scale(3.9)">
        <path d="M23.745 12.27c0-.825-.075-1.62-.21-2.385H12.24v4.515h6.45c-.285 1.47-1.11 2.715-2.355 3.555v2.94h3.81c2.235-2.055 3.6-5.115 3.6-8.625z" />
        <path d="M12.24 24c3.24 0 5.955-1.08 7.935-2.91l-3.81-2.94c-1.08.72-2.46 1.155-4.125 1.155-3.165 0-5.85-2.145-6.81-5.025H1.47v3.06C3.45 21.3 7.515 24 12.24 24z" />
        <path d="M5.43 14.28c-.24-.72-.375-1.5-.375-2.28 0-.78.135-1.56.375-2.28v-3.06H1.47C.54 8.355 0 10.125 0 12c0 1.875.54 3.645 1.47 5.34l3.96-3.06z" />
        <path d="M12.24 4.695c1.77 0 3.36.615 4.605 1.815l3.465-3.465C18.18 1.095 15.465 0 12.24 0 7.515 0 3.45 2.7 1.47 6.66l3.96 3.06c.96-2.88 3.645-5.025 6.81-5.025z" />
    </g>

    <!-- Github -->
    <g transform="translate(1056.0, 88.0) scale(3.9)">
        <path d="M12 .297c-6.63 0-12 5.373-12 12 0 5.303 3.438 9.8 8.205 11.385.6.113.82-.258.82-.577 0-.285-.01-1.04-.015-2.04-3.338.724-4.042-1.61-4.042-1.61C4.422 18.07 3.633 17.7 3.633 17.7c-1.087-.744.084-.729.084-.729 1.205.084 1.838 1.236 1.838 1.236 1.07 1.835 2.809 1.305 3.495.998.108-.776.417-1.305.76-1.605-2.665-.3-5.466-1.332-5.466-5.93 0-1.31.465-2.38 1.235-3.22-.135-.303-.54-1.523.105-3.176 0 0 1.005-.322 3.3 1.23.96-.267 1.98-.399 3-.405 1.02.006 2.04.138 3 .405 2.28-1.552 3.285-1.23 3.285-1.23.645 1.653.24 2.873.12 3.176.765.84 1.23 1.91 1.23 3.22 0 4.61-2.805 5.625-5.475 5.92.42.36.81 1.096.81 2.22 0 1.606-.015 2.896-.015 3.286 0 .315.21.69.825.57C20.565 22.092 24 17.592 24 12.297c0-6.627-5.373-12-12-12" />
    </g>

    <!-- X -->
    <g transform="translate(640.0, 192.0) scale(4.4)">
        <path d="M18.244 2.25h3.308l-7.227 8.26 8.502 11.24H16.17l-5.214-6.817L4.99 22.75H1.68l7.73-8.835L1.254 2.25H8.08l4.713 6.231zm-1.161 17.52h1.833L7.084 4.126H5.117z" />
    </g>


    <!-- Qwen (using hugeicons) -->
    <g transform="translate(768.0, 358.0) scale(4.4)" stroke="#e5e7eb" fill="none" stroke-width="1.5">
        <path stroke-linecap="round" stroke-linejoin="round" d="M9 2h3.5L14 4.5h5.13L20.5 7m1.5 7.5l-1.645 2.663h-2.477L15 22h-3.217M5 20l-1.5-2.5l1-3l-2.5-5L4 7"/><path stroke-linecap="round" stroke-linejoin="round" d="m19.19 9.662l1.31-2.661H10l1-2l-2-3l-2.251 5H4l5 10H6l-1 3h5.5l1.252 2l5.65-9.935L18.94 14.5H22z"/><path stroke-linecap="round" stroke-linejoin="round" d="M12 15.5L9 10h6z"/>
    </g>
    <!-- MiniMax -->
    <g transform="translate(576.0, 336.0) scale(4.4)">
        <path d="M11.43 3.92a.86.86 0 1 0-1.718 0v14.236a1.999 1.999 0 0 1-3.997 0V9.022a.86.86 0 1 0-1.718 0v3.87a1.999 1.999 0 0 1-3.997 0V11.49a.57.57 0 0 1 1.139 0v1.404a.86.86 0 0 0 1.719 0V9.022a1.999 1.999 0 0 1 3.997 0v9.134a.86.86 0 0 0 1.719 0V3.92a1.998 1.998 0 1 1 3.996 0v11.788a.57.57 0 1 1-1.139 0zm10.572 3.105a2 2 0 0 0-1.999 1.997v7.63a.86.86 0 0 1-1.718 0V3.923a1.999 1.999 0 0 0-3.997 0v16.16a.86.86 0 0 1-1.719 0V18.08a.57.57 0 1 0-1.138 0v2a1.998 1.998 0 0 0 3.996 0V3.92a.86.86 0 0 1 1.719 0v12.73a1.999 1.999 0 0 0 3.996 0V9.023a.86.86 0 1 1 1.72 0v6.686a.57.57 0 0 0 1.138 0V9.022a2 2 0 0 0-1.998-1.997" />
    </g>
    <!-- arXiv -->
    <g transform="translate(936.0, 344.0) scale(4.1)">
        <path d="M3.8423 0a1.0037 1.0037 0 0 0-.922.6078c-.1536.3687-.0438.6275.2938 1.1113l6.9185 8.3597-1.0223 1.1058a1.0393 1.0393 0 0 0 .003 1.4229l1.2292 1.3135-5.4391 6.4444c-.2803.299-.4538.823-.2971 1.1986a1.0253 1.0253 0 0 0 .9585.635.9133.9133 0 0 0 .6891-.3405l5.783-6.126 7.4902 8.0051a.8527.8527 0 0 0 .6835.2597.9575.9575 0 0 0 .8777-.6138c.1577-.377-.017-.7502-.306-1.1407l-7.0518-8.3418 1.0632-1.13a.9626.9626 0 0 0 .0089-1.3165L4.6336.4639s-.3733-.4535-.768-.463zm0 .272h.0166c.2179.0052.4874.2715.5644.3639l.005.006.0052.0055 10.169 10.9905a.6915.6915 0 0 1-.0072.945l-1.0666 1.133-1.4982-1.7724-8.5994-10.39c-.3286-.472-.352-.6183-.2592-.841a.7307.7307 0 0 1 .6704-.4401Zm14.341 1.5701a.877.877 0 0 0-.6554.2418l-5.6962 6.1584 1.6944 1.8319 5.3089-6.5138c.3251-.4335.479-.6603.3247-1.0292a1.1205 1.1205 0 0 0-.9763-.689zm-7.6557 12.2823 1.3186 1.4135-5.7864 6.1295a.6494.6494 0 0 1-.4959.26.7516.7516 0 0 1-.706-.4669c-.1119-.2682.0359-.6864.2442-.9083l.0051-.0055.0047-.0055z" />
    </g>
    <!-- Claude -->
    <g transform="translate(902.0, 78.0) scale(3.5)">
        <path d="m4.714 15.956l4.718-2.648l.079-.23l-.08-.128h-.23l-.79-.048l-2.695-.073l-2.337-.097l-2.265-.122l-.57-.121l-.535-.704l.055-.353l.48-.321l.685.06l1.518.104l2.277.157l1.651.098l2.447.255h.389l.054-.158l-.133-.097l-.103-.098l-2.356-1.596l-2.55-1.688l-1.336-.972l-.722-.491L2 6.223l-.158-1.008l.656-.722l.88.06l.224.061l.893.686l1.906 1.476l2.49 1.833l.364.304l.146-.104l.018-.072l-.164-.274l-1.354-2.446l-1.445-2.49l-.644-1.032l-.17-.619a3 3 0 0 1-.103-.729L6.287.133L6.7 0l.995.134l.42.364l.619 1.415L9.735 4.14l1.555 3.03l.455.898l.243.832l.09.255h.159V9.01l.127-1.706l.237-2.095l.23-2.695l.08-.76l.376-.91l.747-.492l.583.28l.48.685l-.067.444l-.286 1.851l-.558 2.903l-.365 1.942h.213l.243-.242l.983-1.306l1.652-2.064l.728-.82l.85-.904l.547-.431h1.032l.759 1.129l-.34 1.166l-1.063 1.347l-.88 1.142l-1.263 1.7l-.79 1.36l.074.11l.188-.02l2.853-.606l1.542-.28l1.84-.315l.832.388l.09.395l-.327.807l-1.967.486l-2.307.462l-3.436.813l-.043.03l.049.061l1.548.146l.662.036h1.62l3.018.225l.79.522l.473.638l-.08.485l-1.213.62l-1.64-.389l-3.825-.91l-1.31-.329h-.183v.11l1.093 1.068l2.003 1.81l2.508 2.33l.127.578l-.321.455l-.34-.049l-2.204-1.657l-.85-.747l-1.925-1.62h-.127v.17l.443.649l2.343 3.521l.122 1.08l-.17.353l-.607.213l-.668-.122l-1.372-1.924l-1.415-2.168l-1.141-1.943l-.14.08l-.674 7.254l-.316.37l-.728.28l-.607-.461l-.322-.747l.322-1.476l.388-1.924l.316-1.53l.285-1.9l.17-.632l-.012-.042l-.14.018l-1.432 1.967l-2.18 2.945l-1.724 1.845l-.413.164l-.716-.37l.066-.662l.401-.589l2.386-3.036l1.439-1.882l.929-1.086l-.006-.158h-.055L4.138 18.56l-1.13.146l-.485-.456l.06-.746l.231-.243l1.907-1.312Z"/>
    </g>
    <!-- Meta -->
    <g transform="translate(750.0, 240.0) scale(4.4)">
        <path d="M6.915 4.03c-1.968 0-3.683 1.28-4.871 3.113C.704 9.208 0 11.883 0 14.449c0 .706.07 1.369.21 1.973a7 7 0 0 0 .265.86a5.3 5.3 0 0 0 .371.761c.696 1.159 1.818 1.927 3.593 1.927c1.497 0 2.633-.671 3.965-2.444c.76-1.012 1.144-1.626 2.663-4.32l.756-1.339l.186-.325c.061.1.121.196.183.3l2.152 3.595c.724 1.21 1.665 2.556 2.47 3.314c1.046.987 1.992 1.22 3.06 1.22c1.075 0 1.876-.355 2.455-.843a3.7 3.7 0 0 0 .81-.973c.542-.939.861-2.127.861-3.745c0-2.72-.681-5.357-2.084-7.45c-1.282-1.912-2.957-2.93-4.716-2.93c-1.047 0-2.088.467-3.053 1.308c-.652.57-1.257 1.29-1.82 2.05c-.69-.875-1.335-1.547-1.958-2.056c-1.182-.966-2.315-1.303-3.454-1.303zm10.16 2.053c1.147 0 2.188.758 2.992 1.999c1.132 1.748 1.647 4.195 1.647 6.4c0 1.548-.368 2.9-1.839 2.9c-.58 0-1.027-.23-1.664-1.004c-.496-.601-1.343-1.878-2.832-4.358l-.617-1.028a45 45 0 0 0-1.255-1.98c.07-.109.141-.224.211-.327c1.12-1.667 2.118-2.602 3.358-2.602zm-10.201.553c1.265 0 2.058.791 2.675 1.446c.307.327.737.871 1.234 1.579l-1.02 1.566c-.757 1.163-1.882 3.017-2.837 4.338c-1.191 1.649-1.81 1.817-2.486 1.817c-.524 0-1.038-.237-1.383-.794c-.263-.426-.464-1.13-.464-2.046c0-2.221.63-4.535 1.66-6.088c.454-.687.964-1.226 1.533-1.533a2.26 2.26 0 0 1 1.088-.285"/>
    </g>
    <!-- Apple -->
    <g transform="translate(1030.0, 280.0) scale(3.5)">
        <path d="M12.152 6.896c-.948 0-2.415-1.078-3.96-1.04-2.04.027-3.91 1.183-4.961 3.014-2.117 3.675-.546 9.103 1.519 12.09 1.013 1.454 2.208 3.126 3.822 3.08 1.567-.046 2.169-.99 3.97-.99 1.788 0 2.346.99 3.979.953 1.688-.027 2.686-1.5 3.684-2.967 1.157-1.685 1.632-3.323 1.65-3.414-.037-.018-3.193-1.226-3.211-4.88-.018-3.064 2.505-4.526 2.616-4.597-1.424-2.083-3.636-2.365-4.42-2.404-1.68-.168-3.333 1.002-4.143 1.002h-.002zM15.112 4.41C15.965 3.374 16.541 1.933 16.386.48c-1.238.05-2.738.826-3.618 1.834-.783.896-1.465 2.368-1.284 3.79 1.383.107 2.766-.665 3.628-1.694z" />
    </g>
    <!-- HuggingFace (devicon-plain ghost face) -->
    <g transform="translate(888.0, 200.0) scale(0.72)">
        <path d="M63.638 4.896c-31.128 0-56.365 25.232-56.365 56.36a56.3 56.3 0 0 0 2.557 16.83h-.061c-2.254 0-4.29.863-5.73 2.433c-1.85 2.014-2.673 4.49-2.315 6.966a8.5 8.5 0 0 0 1.154 3.217c-1.241 1.005-2.156 2.403-2.6 4.086a8.54 8.54 0 0 0 1.155 6.899a8 8 0 0 0-.332.572c-1.114 2.115-1.187 4.505-.203 6.73c1.491 3.373 5.196 6.03 12.39 8.883c4.474 1.774 8.57 2.908 8.606 2.918c5.917 1.535 11.27 2.314 15.902 2.314c7.607 0 13.282-2.08 16.907-6.19a57 57 0 0 0 18.505-.106c3.62 4.18 9.328 6.296 16.999 6.296c4.632 0 9.984-.78 15.9-2.314c.037-.01 4.13-1.144 8.605-2.918c7.194-2.852 10.9-5.51 12.391-8.883c.983-2.225.911-4.615-.203-6.73a7 7 0 0 0-.332-.572a8.55 8.55 0 0 0 1.316-3.327a8.5 8.5 0 0 0-.164-3.57c-.443-1.683-1.356-3.083-2.597-4.088a8.5 8.5 0 0 0 1.152-3.215c.358-2.477-.465-4.952-2.315-6.968c-1.439-1.57-3.476-2.432-5.73-2.432q-.393 0-.8.04a56.3 56.3 0 0 0 2.57-16.87C120 30.13 94.766 4.896 63.638 4.896m.006 5.818h.002c27.915 0 50.543 22.63 50.543 50.543v.652q0 .164-.004.326q-.002.134-.008.27c0 .08-.003.163-.006.24q-.002.152-.01.305v.008l-.014.355l-.015.309l-.002.074l-.018.33a54 54 0 0 1-.162 2.125v.008q-.016.174-.035.35l-.03.273l-.058.535l-.033.271l-.043.32q-.023.175-.05.348q-.025.195-.056.39l-.045.306l-.054.345l-.06.346q-.033.174-.061.346q-.06.345-.125.687l-.207 1.026l-.073.336q-.036.17-.076.34c-1.422-1.383-3.307-2.135-5.385-2.135c-1.885 0-3.823.623-5.763 1.853c-1.287.818-2.709 2.267-4.174 4.088c-1.357-1.882-3.256-3.134-5.428-3.476a8 8 0 0 0-1.254-.1c-4.961 0-7.945 4.306-9.074 8.178c-.56 1.308-3.248 7.262-7.291 11.302c-6.155 6.135-7.707 12.458-4.707 19.229l-.285.033l-.487.057q-.382.04-.767.076l-.25.021l-.23.02l-.323.025l-.357.028l-.36.023l-.078.004l-.281.016l-.12.006l-.333.017l-.389.018l-.351.012l-.235.006h-.119l-.219.004h-.117q-.109-.001-.219.004l-.298.004h-.416q-.492 0-.98-.012l-.265-.004q-.113-.001-.224-.006l-.28-.008l-.35-.014l-.312-.014l-.082-.002l-.297-.015l-.248-.016l-.193-.011a52 52 0 0 1-.726-.051l-.252-.022l-.32-.027q-.188-.016-.376-.035q-.312-.03-.625-.063h-.01c3.048-6.799 1.507-13.149-4.652-19.302c-4.04-4.035-6.727-9.991-7.285-11.3c-1.129-3.87-4.114-8.175-9.074-8.175q-.63 0-1.252.1c-2.173.342-4.073 1.59-5.428 3.472c-1.465-1.821-2.889-3.268-4.176-4.086c-1.94-1.23-3.877-1.853-5.763-1.853c-2.355 0-4.459.966-5.926 2.72l-.04.043l-.081-.345l-.004-.016a49 49 0 0 1-.701-3.61q.001-.01-.004-.023a40 40 0 0 1-.158-1.09l-.05-.369l-.044-.369l-.041-.353l-.004-.03a54 54 0 0 1-.14-1.441l-.014-.186l-.023-.314q-.012-.13-.02-.26l-.004-.06a35 35 0 0 1-.06-1.104l-.014-.332l-.004-.098l-.01-.304l-.005-.26c0-.103-.007-.207-.008-.31c-.002-.104-.005-.217-.006-.327s.001-.217-.002-.326s0-.217 0-.326c0-27.913 22.627-50.543 50.543-50.543m-18.783 26.56a7.27 7.27 0 0 0-6.963 9.738a7.27 7.27 0 0 0 3.434 3.956c1.075.572 1.78-.442 2.533-1.533c.557-.807 1.143-1.657 1.931-1.936c.729-.257 1.682.123 2.598.49c1.168.467 2.276.911 2.775-.027a7.275 7.275 0 0 0-.81-8.04a7.28 7.28 0 0 0-5.498-2.648m36.531.006a7.27 7.27 0 0 0-6.996 4.47a7.28 7.28 0 0 0 .291 6.212c.499.938 1.607.495 2.775.027c.916-.366 1.87-.747 2.598-.49c.788.279 1.374 1.128 1.932 1.936c.753 1.09 1.455 2.105 2.53 1.533a7.27 7.27 0 0 0 .642-12.46a7.27 7.27 0 0 0-3.772-1.228m16.484 7.612a4.72 4.72 0 0 0-4.762 4.264a4.73 4.73 0 0 0 1.36 3.808c.439.44.961.786 1.535 1.023a4.71 4.71 0 0 0 4.436-.437a4.725 4.725 0 0 0 2.012-4.852a4.73 4.73 0 0 0-4.58-3.807zm-67.46.006a4.726 4.726 0 0 0-4.6 6.53a4.7 4.7 0 0 0 2.559 2.56a4.72 4.72 0 0 0 4.435-.438a4.72 4.72 0 0 0 2.01-4.852a4.73 4.73 0 0 0-3.713-3.716a5 5 0 0 0-.691-.084m50.166 16c-1.03.069-2.518.79-4.35 1.697l-.207.101c-3.363 1.666-7.838 3.883-12.752 3.883s-9.39-2.217-12.752-3.883c-3.782-1.873-6.156-3.048-6.156.416c0 4.44 2.122 11.729 7.947 15.963a12.65 12.65 0 0 1 7.72-6.527c.582-.173 1.18.828 1.794 1.853c.591.989 1.195 1.998 1.81 1.998c.656 0 1.301-.996 1.93-1.968c.657-1.017 1.296-2.007 1.916-1.809a12.65 12.65 0 0 1 7.277 6.057c5.431-4.279 7.426-11.264 7.426-15.567c0-1.7-.573-2.284-1.603-2.214M20.457 76.163c.742 0 1.646.315 2.646.95c3.101 1.967 9.09 12.258 11.281 16.261c.735 1.341 1.989 1.908 3.12 1.908c2.242 0 3.997-2.231.206-5.064c-5.697-4.263-3.7-11.23-.98-11.658a2 2 0 0 1 .35-.028c2.473 0 3.562 4.26 3.562 4.26s3.2 8.03 8.691 13.518c4.984 4.98 5.68 9.066 2.776 14.166q-.469.82-1.002 1.597c-.937 1.372-2.17 2.42-3.6 3.2c-2.734 1.49-6.195 2.011-9.71 2.011c-5.555 0-11.25-1.299-14.442-2.127c-.157-.04-19.564-5.521-17.107-10.187c.413-.785 1.094-1.1 1.95-1.1c3.46 0 9.759 5.153 12.466 5.153c.604 0 1.033-.257 1.207-.885c1.153-4.138-17.537-5.88-15.963-11.871c.277-1.06 1.032-1.49 2.092-1.49c4.573-.001 14.837 8.042 16.984 8.042c.165 0 .284-.049.348-.15l.027-.045c1.008-1.664.429-2.875-6.475-7.103l-.662-.403c-7.597-4.598-12.929-7.365-9.896-10.666c.348-.38.844-.55 1.445-.55c.712 0 1.574.238 2.523.638c4.013 1.692 9.574 6.306 11.897 8.318q.547.477 1.088.961s2.94 3.059 4.719 3.059c.41 0 .758-.162.994-.56c1.26-2.127-11.714-11.957-12.446-16.014c-.496-2.749.35-4.14 1.91-4.14zm86.939.01c.617-.034 1.132.138 1.508.514c.455.454.707 1.21.693 2.26q.001.068-.004.14v.05q-.001.073-.008.145c0 .06-.009.12-.014.18l-.015.158l-.006.047a3 3 0 0 1-.022.184a4 4 0 0 1-.027.187l-.027.176l-.018.098q-.026.142-.066.28q-.079.26-.19.505a7.4 7.4 0 0 1-.556 1.01q-.115.178-.239.363q-.316.452-.658.885l-.103.132q-.556.695-1.149 1.358l-.125.139q-.252.28-.514.564l-.13.144l-.266.286l-.271.289l-.276.29l-.277.29l-.28.29q-.282.293-.566.585c-2.704 2.774-5.555 5.538-6.52 7.262a4 4 0 0 0-.173.345c-.138.314-.196.582-.157.799a.6.6 0 0 0 .075.201a1.1 1.1 0 0 0 .309.355c.198.142.439.214.683.208h.074l.078-.008l.078-.008l.067-.008q.013-.003.025-.008l.06-.01l.016-.004l.065-.016l.023-.004l.07-.02c.024-.006.056-.013.084-.023q.176-.054.344-.127q.09-.036.174-.078l.09-.04l.09-.046q.319-.166.623-.361l.088-.059q.045-.027.09-.058l.087-.06l.047-.034l.13-.09c.119-.082.23-.166.343-.252l.01-.008l.18-.138c.244-.194.476-.39.687-.573l.139-.123l.013-.011l.073-.065c.172-.154.327-.299.455-.418l.05-.05l.128-.12l.074-.072l.027-.027l.008-.008l.076-.078l.051-.051l.006-.006l.024-.02l.029-.027l.01-.01l.025-.021l.135-.121l.076-.067l.12-.109l.091-.08l.049-.041l.096-.084l.138-.123l.076-.066c.29-.253.642-.555 1.047-.899l.168-.142l.274-.23l.281-.233q.55-.459 1.178-.963l.275-.22q.35-.281.715-.567q.147-.117.299-.23a67 67 0 0 1 2.508-1.86l.257-.178l.538-.367l.162-.11q.48-.324.97-.634l.162-.104l.16-.1q.243-.15.481-.292l.16-.096l.319-.186l.312-.18l.063-.034l.248-.135q.155-.085.308-.164l.155-.078l.148-.075q.078-.037.152-.076a14 14 0 0 1 1.305-.562l.273-.096q.123-.042.239-.078l.025-.008q.063-.019.125-.035l.012-.004q.128-.037.254-.066h.004q.356-.085.72-.121q.167-.018.334-.016h.057q.11 0 .217.012q.05.002.098.01h.013a2 2 0 0 1 .19.035h.011c.032.006.06.014.092.023q.255.071.479.217q.108.07.203.16l.017.018q.018.015.034.033l.033.035c.268.28.49.602.656.953l.025.06a2.2 2.2 0 0 1 .027 1.703a3 3 0 0 1-.224.477q-.312.525-.732.967l-.06.065a9 9 0 0 1-.409.406l-.137.125l-.072.064a15 15 0 0 1-.857.705q-.587.449-1.196.866q-.367.25-.738.494q-.92.603-1.86 1.175c-1.312.807-2.765 1.67-4.316 2.608l-.402.244q-.659.402-1.244.77l-.198.123l-.373.238l-.738.476l-.197.131l-.29.192l-.093.06l-.289.194l-.152.103l-.18.125l-.164.115q-.418.296-.775.563l-.09.068a15 15 0 0 0-.979.803l-.084.074l-.138.13c-.031.03-.058.06-.09.089l-.043.043q-.144.143-.28.293l-.044.05a4 4 0 0 0-.258.329l-.033.047a3 3 0 0 0-.16.265l-.038.067l-.033.068l-.021.049l-.012.035l-.012.03l-.015.04a1.7 1.7 0 0 0-.086.35l-.006.041l-.006.037v.211q-.002.025.006.053l.004.033q.002.025.008.053l.011.072v.004l.016.07q.008.036.02.073q.019.072.044.142q.015.042.032.082q.002.008.008.018l.023.052l.033.075q.054.115.117.224l.045.075l.045.078l.027.035l.016.015l.016.016l.017.012a.3.3 0 0 0 .13.056c.384.087 1.177-.232 2.228-.787c.059-.032.124-.065.187-.1l.32-.175l.157-.086q.166-.091.34-.191l.21-.121c1.39-.8 3.049-1.826 4.764-2.829q.241-.142.485-.28l.324-.208q.564-.323 1.133-.639q.716-.395 1.445-.767l.318-.16l.625-.305q.6-.284 1.211-.539l.225-.092l.025-.01c1.184-.468 2.259-.757 3.127-.757q.282-.003.559.044h.006q.088.017.17.038h.01a1.75 1.75 0 0 1 .898.525c.064.07.12.15.17.23q.14.217.22.461q.032.094.06.192a2.6 2.6 0 0 1-.04 1.537l-.021.058a4 4 0 0 1-.174.391a3 3 0 0 1-.164.274a4.4 4.4 0 0 1-.461.576a5 5 0 0 1-.147.152c-.897.89-2.265 1.67-3.812 2.385q-.263.119-.533.238l-.18.08c-.12.053-.238.105-.363.156q-.18.08-.367.157l-.373.152c-.87.358-1.762.698-2.631 1.035l-.373.147l-.368.144q-.367.143-.724.285l-.354.143l-.347.143l-.172.072l-.336.142c-2.56 1.099-4.4 2.214-4.014 3.6q.016.06.037.113a1.3 1.3 0 0 0 .14.293a1 1 0 0 0 .12.15c.455.474 1.282.4 2.326.024q.22-.081.438-.17l.09-.037a20 20 0 0 0 .945-.432c1.276-.624 2.723-1.463 4.158-2.228a38 38 0 0 1 1.748-.885c1.36-.64 2.637-1.092 3.664-1.092c.482 0 .907.098 1.262.325l.058.039c.223.156.41.358.55.591q.04.067.08.141c.507.964.082 1.961-.913 2.94c-.954.94-2.437 1.862-4.125 2.714q-.187.096-.379.188c-5.022 2.466-11.598 4.324-11.69 4.348a75 75 0 0 1-7.081 1.496l-.418.064l-.07.012a45 45 0 0 1-1.924.254l-.06.006a46 46 0 0 1-3.573.271h-.02a37 37 0 0 1-1.295.022h-.5a31 31 0 0 1-1.972-.088q-.024.001-.047-.004a27 27 0 0 1-2.395-.307l-.218-.04l-.018-.005a18 18 0 0 1-.69-.146q-.2-.043-.398-.096l-.08-.02q-.097-.023-.193-.05l-.035-.01l-.205-.06l-.225-.067l-.025-.006l-.194-.059l-.219-.07l-.18-.06l-.13-.046a14 14 0 0 1-.379-.138l-.117-.047l-.1-.04a13 13 0 0 1-.562-.238l-.123-.06l-.022-.01l-.13-.059q-.13-.062-.257-.129l-.025-.011l-.123-.065a11 11 0 0 1-.64-.365l-.118-.07l-.17-.11l-.148-.097l-.162-.112l-.094-.068a8 8 0 0 1-.299-.223l-.156-.12a10 10 0 0 1-.336-.282l-.004-.004l-.16-.143q-.078-.071-.152-.144l-.008-.006a6 6 0 0 1-.157-.155l-.154-.158l-.15-.162c-.05-.055-.096-.104-.143-.158l-.015-.018a4 4 0 0 1-.133-.16a8 8 0 0 1-.278-.35q-.135-.18-.263-.367l-.082-.123q-.164-.24-.319-.486a12 12 0 0 1-.226-.355l-.139-.227l-.02-.031l-.126-.219q-.036-.059-.069-.117l-.07-.125l-.04-.067l-.023-.043a9 9 0 0 1-.13-.244l-.06-.105l-.06-.115l-.058-.116q-.225-.449-.426-.91l-.047-.113l-.09-.225l-.043-.107a11 11 0 0 1-.517-1.76l-.022-.11a8 8 0 0 1-.097-.642l-.012-.11a8 8 0 0 1-.031-.425c0-.036-.005-.07-.006-.105l-.006-.211c-.037-2.85 1.405-5.59 4.488-8.672c5.492-5.487 8.69-13.516 8.69-13.516s.087-.337.265-.822l.078-.21q.156-.406.352-.798l.027-.05a8 8 0 0 1 .457-.794a7 7 0 0 1 .31-.422q.091-.111.188-.218q.038-.044.079-.084c.318-.33.682-.596 1.093-.739l.051-.017l.107-.033q.06-.016.122-.028l.02-.004q.13-.026.263-.035h.008c.046 0 .093-.004.14-.004c.06 0 .114 0 .172.006q.09.008.18.022c.495.078.965.373 1.37.828q.233.26.415.556q.12.192.226.407a5 5 0 0 1 .27.633q.195.55.293 1.128a8 8 0 0 1 .1 1.57a8 8 0 0 1-.526 2.532l-.09.223a7 7 0 0 1-.371.773q-.061.11-.125.22a9 9 0 0 1-.347.546l-.077.107a9 9 0 0 1-.98 1.152c-.353.355-.734.682-1.135.98a9 9 0 0 0-1.125.985c-1.002 1.052-1.237 1.982-1.012 2.686q.056.166.141.318q.102.174.238.32l.036.038l.037.035q.053.052.113.103l.041.032q.146.11.307.199q.044.026.095.05q.174.086.358.145l.103.031l.043.012l.059.016l.053.011l.056.012l.055.012l.05.01q.061.01.122.017l.037.006l.068.006l.043.006l.07.006h.042l.074.004h.23l.067-.004l.076-.006l.092-.008l.087-.01q.03-.002.061-.01q.401-.058.777-.21l.106-.045a3 3 0 0 0 .516-.281q.228-.15.431-.337q.048-.043.094-.087l.045-.045l.088-.092q.32-.354.55-.772a153 153 0 0 1 4.102-7.011l.197-.315l.198-.314q.148-.239.298-.47l.1-.157q.497-.78 1.012-1.551l.205-.303c.408-.605.815-1.193 1.219-1.752l.199-.279a38 38 0 0 1 1.37-1.773l.188-.225c.032-.037.06-.075.094-.111a11 11 0 0 1 .277-.319l.178-.203l.09-.097q.135-.146.266-.278c.06-.06.114-.12.171-.176a7 7 0 0 1 1.114-.923l.093-.061q.134-.09.276-.166c.788-.448 1.51-.688 2.127-.723z" />
    </g>
  </g>


  <!-- Foreground Title Logo -->
  <g transform="translate(80, 210)">
    
    <!-- 1. "Insight" Text (Black) with Mask for Cutouts -->
    <mask id="insight-cutout">
      <!-- Everything white under the mask is visible -->
      <rect x="-50" y="-150" width="800" height="300" fill="white" />
      <!-- Black cuts out the text -->
      <rect fill="black" x="145" y="-115" width="22" height="22" /> <!-- Cutout near 'n' -->
    </mask>

    <!-- Used tight tracking, heavy weight -->
    <text class="text-black" x="0" y="0" mask="url(#insight-cutout)">Insight</text>
    
    <!-- Stylized block overlays to imitate LiveKit logo dots/cuts -->
    <!-- In LiveKit, i dot is a square, some letters have square bits. We'll add some square decorations. -->
    <rect fill="#0f1115" x="120" y="-120" width="22" height="22" /> <!-- Dot for i? -->
    <rect fill="#0f1115" x="375" y="-30"  width="24" height="24" />  <!-- Block near 'h' -->
    <rect fill="#0f1115" x="220" y="-130" width="18" height="18" />  <!-- Small block near 's' -->

    <!-- 2. "Flow" Text (Blue) -->
    <text class="text-blue" x="0" y="130">Flow</text>

    <!-- 3. Dashed line below "Flow" -->
    <text class="dash" x="0" y="210">//-----------------------</text>
  </g>
</svg>
